<svg xmlns="http://www.w3.org/2000/svg" xmlns:xlink="http://www.w3.org/1999/xlink" width="1440" height="745" viewBox="0 0 1440 745">
  <defs>
    <clipPath id="clip-Artboard_1">
      <rect width="1440" height="745"/>
    </clipPath>
  </defs>
  <g id="Artboard_1" data-name="Artboard – 1" clip-path="url(#clip-Artboard_1)">
    <g id="Group_399" data-name="Group 399" transform="translate(10 -111.5)">
      <g id="Group_398" data-name="Group 398">
        <g id="Combined_Shape_2" data-name="Combined Shape 2" transform="matrix(0.966, 0.259, -0.259, 0.966, 68.503, -375.858)">
          <path id="Combined_Shape" data-name="Combined Shape" d="M0,904.755H.013V440.09c.167,1.734,1.767,17.6,6.355,40.537,2.844,14.222,6.269,28.384,10.179,42.093A470.385,470.385,0,0,0,33.38,571.674c15.99,39.069,36.034,71.191,59.577,95.474a201.075,201.075,0,0,0,21.379,19.165,178.593,178.593,0,0,0,24.345,15.845,169.3,169.3,0,0,0,27.5,11.8,174.986,174.986,0,0,0,30.835,7.046,286.248,286.248,0,0,0,38.393,2.637,275.848,275.848,0,0,0,45.683-3.808,331.931,331.931,0,0,0,42.544-10.107c27.608-8.4,53.535-19.471,80.984-31.2l.01,0,.02-.008q3.717-1.588,7.45-3.18c29.034-12.371,57.723-24.219,89.452-33.208a400.33,400.33,0,0,1,50.328-10.944c9.006-1.348,18.167-2.379,27.228-3.066,9.5-.72,19.21-1.085,28.858-1.085a423.038,423.038,0,0,1,58.134,4.146c10.023,1.4,20.127,3.316,30.03,5.706,9.472,2.286,19.087,5.08,28.578,8.306a399.352,399.352,0,0,1,53.918,23.116c34.877,17.87,67.81,39.881,102.677,63.184,24.6,16.44,50.034,33.44,77.155,49.586,14.641,8.716,28.422,16.388,42.131,23.455,15.451,7.965,30.361,14.934,45.582,21.306,16.411,6.87,33.181,13,49.844,18.214a564.449,564.449,0,0,0,54.917,14.179,600.821,600.821,0,0,0,60.8,9.2c21.76,2.175,44.469,3.278,67.5,3.281h.053c25.5,0,52.258-1.354,79.537-4.026a587.309,587.309,0,0,0,69.771-11.064,554.237,554.237,0,0,0,63.731-18.2,543.261,543.261,0,0,0,57.9-24.247,550.443,550.443,0,0,0,52.287-29.214c58.451-36.966,111.353-85.71,157.236-144.876A736.965,736.965,0,0,0,1810.188,565c12.358-20.737,23.774-42.15,33.929-63.647,9.036-19.127,15.38-34.778,19.112-44.54,4.025-10.529,5.974-16.709,5.993-16.771V0H0Z" transform="translate(0 0)" fill="#f5f5f5"/>
        </g>
      </g>
      <g id="Combined_Shape_2-2" data-name="Combined Shape 2" transform="translate(-25.837 -290.013) rotate(9)" opacity="0.38">
        <path id="Combined_Shape-2" data-name="Combined Shape" d="M0,904.755H.013V440.09c.167,1.734,1.767,17.6,6.355,40.537,2.844,14.222,6.269,28.384,10.179,42.093A470.385,470.385,0,0,0,33.38,571.674c15.99,39.069,36.034,71.191,59.577,95.474a201.075,201.075,0,0,0,21.379,19.165,178.593,178.593,0,0,0,24.345,15.845,169.3,169.3,0,0,0,27.5,11.8,174.986,174.986,0,0,0,30.835,7.046,286.248,286.248,0,0,0,38.393,2.637,275.848,275.848,0,0,0,45.683-3.808,331.931,331.931,0,0,0,42.544-10.107c27.608-8.4,53.535-19.471,80.984-31.2l.01,0,.02-.008q3.717-1.588,7.45-3.18c29.034-12.371,57.723-24.219,89.452-33.208a400.33,400.33,0,0,1,50.328-10.944c9.006-1.348,18.167-2.379,27.228-3.066,9.5-.72,19.21-1.085,28.858-1.085a423.038,423.038,0,0,1,58.134,4.146c10.023,1.4,20.127,3.316,30.03,5.706,9.472,2.286,19.087,5.08,28.578,8.306a399.352,399.352,0,0,1,53.918,23.116c34.877,17.87,67.81,39.881,102.677,63.184,24.6,16.44,50.034,33.44,77.155,49.586,14.641,8.716,28.422,16.388,42.131,23.455,15.451,7.965,30.361,14.934,45.582,21.306,16.411,6.87,33.181,13,49.844,18.214a564.449,564.449,0,0,0,54.917,14.179,600.821,600.821,0,0,0,60.8,9.2c21.76,2.175,44.469,3.278,67.5,3.281h.053c25.5,0,52.258-1.354,79.537-4.026a587.309,587.309,0,0,0,69.771-11.064,554.237,554.237,0,0,0,63.731-18.2,543.261,543.261,0,0,0,57.9-24.247,550.443,550.443,0,0,0,52.287-29.214c58.451-36.966,111.353-85.71,157.236-144.876A736.965,736.965,0,0,0,1810.188,565c12.358-20.737,23.774-42.15,33.929-63.647,9.036-19.127,15.38-34.778,19.112-44.54,4.025-10.529,5.974-16.709,5.993-16.771V0H0Z" transform="translate(0 0)" fill="#f8f8f8"/>
      </g>
    </g>
  </g>
</svg>
