<svg xmlns="http://www.w3.org/2000/svg" width="39.947" height="39.947" viewBox="0 0 39.947 39.947">
  <g id="Group_399" data-name="Group 399" transform="translate(-1180.053 -2343.026)">
    <path id="Path_348" data-name="Path 348" d="M33.274,13.3A19.974,19.974,0,1,1,13.3,33.274,19.974,19.974,0,0,1,33.274,13.3Zm0,38.056A18.083,18.083,0,1,0,15.191,33.274,18.108,18.108,0,0,0,33.274,51.356Z" transform="translate(1166.753 2329.726)" fill="#fe9610"/>
    <path id="Path_349" data-name="Path 349" d="M38.435,49.918h16.7L49.151,43.93a.947.947,0,1,1,1.339-1.339l7.643,7.6a.858.858,0,0,1,.2.315,1.092,1.092,0,0,1,0,.709.858.858,0,0,1-.2.315l-7.643,7.6a.951.951,0,0,1-1.339,0,.976.976,0,0,1,0-1.339l5.988-5.988H38.4a.946.946,0,1,1,.039-1.891Z" transform="translate(1152.097 2312.136)" fill="#fe9610"/>
  </g>
</svg>
