<svg xmlns="http://www.w3.org/2000/svg" width="570.783" height="618.767" viewBox="0 0 570.783 618.767">
  <g id="Group_397" data-name="Group 397" transform="translate(-733.313 -3006.659)">
    <g id="Group_376" data-name="Group 376" transform="translate(-60.328 3302.733) rotate(-45)">
      <path id="Path_6306" data-name="Path 6306" d="M2487.467,1878.2c-.788.178-1.456.358-2.135.479a6.29,6.29,0,0,1-7.534-5.128,12.861,12.861,0,0,1,.247-5.59,3.147,3.147,0,0,1,.575-1.2.96.96,0,0,1,.831-.312,1.505,1.505,0,0,1,.655.762,1.366,1.366,0,0,1-.028.722,14.128,14.128,0,0,0,.094,5c.676,3.481,3.677,4.368,6.6,3.5.6-.177.54-.644.538-1.088a19.372,19.372,0,0,1,1.8-7.959,16.914,16.914,0,0,1,3.633-5.5,6.444,6.444,0,0,1,1.6-1.112,2.727,2.727,0,0,1,3.925,1.52,5.657,5.657,0,0,1,.211,3.5,15.178,15.178,0,0,1-5.9,9.2,2.078,2.078,0,0,0-.93,2.685c.219.615.339,1.267.582,1.871a3.481,3.481,0,0,0,2.938,2.3,9.753,9.753,0,0,0,5.888-1.328c.485-.256.522-.667.491-1.147a22.241,22.241,0,0,1,4.655-15.865,5.578,5.578,0,0,1,1.794-1.452,2.923,2.923,0,0,1,4.319,1.591,7.507,7.507,0,0,1,.22,3.881,23.356,23.356,0,0,1-5.2,11.092,7.656,7.656,0,0,1-1.054,1.195,1.536,1.536,0,0,0-.392,1.97,17.417,17.417,0,0,0,2.977,5.05c.749.92,1.51,1.831,2.253,2.756a9.874,9.874,0,0,1,.864,1.191c.253.436.808.969.333,1.4a1.879,1.879,0,0,1-1.49.129,9.163,9.163,0,0,1-3.881-2.269,17.8,17.8,0,0,1-4.74-6.811c-.479.244-.9.447-1.313.672a12.68,12.68,0,0,1-4.879,1.549c-3.948.392-6.989-1.771-8.156-5.749C2487.734,1879.231,2487.617,1878.758,2487.467,1878.2Zm17.563-.7a3.919,3.919,0,0,0,.6-.357,18.933,18.933,0,0,0,4.995-9.508,8.461,8.461,0,0,0,0-2.677c-.15-1.02-.96-1.3-1.641-.546a14.8,14.8,0,0,0-2.079,2.987,16.318,16.318,0,0,0-1.574,5.629C2505.158,1874.423,2505.135,1875.839,2505.03,1877.5Zm-13.452-3.678c.33-.2.509-.291.664-.411a13.287,13.287,0,0,0,4.657-7.026,7.705,7.705,0,0,0,.254-1.931c.019-.712-.134-1.5-.869-1.743s-1.157.436-1.529.971a19.452,19.452,0,0,0-3.269,9.5A3.571,3.571,0,0,0,2491.577,1873.82Z" transform="translate(-1401.806 -1168.251)" fill="#f3af55"/>
      <path id="Path_6307" data-name="Path 6307" d="M1069.158,1181.309a12.283,12.283,0,0,0,2.736,6.457c1.29,1.625,2.845,3.039,4.286,4.543.339.354.726.669,1.029,1.051.5.633.382,1.227-.4,1.4a6.227,6.227,0,0,1-2.4.052,7.328,7.328,0,0,1-3.582-2.038,15.192,15.192,0,0,1-5.16-9.879c-.042-.4-.119-.8-.195-1.3a9.545,9.545,0,0,1-5.3-2.542,12.464,12.464,0,0,1-2.911-5.169c-.76,0-1.532.049-2.3-.009a8.512,8.512,0,0,1-7.339-4.8,7.085,7.085,0,0,1-.528-5.135,1.042,1.042,0,0,1,.162-.457c.236-.244.494-.579.786-.63.461-.08.576.379.63.745.06.4.051.816.084,1.224a7.148,7.148,0,0,0,7.767,6.382,1.067,1.067,0,0,0,.268-.139c.113-1.133.179-2.31.357-3.471a10.575,10.575,0,0,1,3.326-6.79,3.368,3.368,0,0,1,4.669-.076,3.956,3.956,0,0,1,1.294,2.7,8.209,8.209,0,0,1-2.343,6.494,30.441,30.441,0,0,1-3.049,2.445c-.251.2-.534.351-.772.505.185,2.567,2.833,5.508,5.68,5.643.116-.325.251-.69.376-1.058a10.674,10.674,0,0,1,3.161-5.024,4.077,4.077,0,0,1,3.981-.986,2.868,2.868,0,0,1,1.98,3.958,9.572,9.572,0,0,1-5.194,5.448C1069.928,1181.006,1069.587,1181.133,1069.158,1181.309Zm-9.479-10.947a6.692,6.692,0,0,0,4.875-6.144c.025-1.149-.346-1.878-1.081-2.125-.7-.236-1.355.068-2.027,1.023C1059.94,1165.26,1059.727,1167.716,1059.679,1170.362Zm9.7,8.048a16.639,16.639,0,0,0,1.831-.951,5.55,5.55,0,0,0,2.107-2.5c.308-.791.01-1.174-.829-1.117a2.081,2.081,0,0,0-1.53.919A8.486,8.486,0,0,0,1069.382,1178.41Z" transform="translate(-635.997 -448.295)" fill="#f3af55"/>
      <path id="Path_6308" data-name="Path 6308" d="M2538.006,2263.335c.008,1.26-.562,1.785-1.49,1.639a2.721,2.721,0,0,1-1.025-.381q-4.38-2.828-8.729-5.7a3.866,3.866,0,0,1-1.022-1.039,1.511,1.511,0,0,1,.014-1.837,1.588,1.588,0,0,1,1.842-.588,3.4,3.4,0,0,1,.787.333c1.955,1.194,3.945,2.338,5.835,3.628a22.2,22.2,0,0,1,3.042,2.652A4.715,4.715,0,0,1,2538.006,2263.335Z" transform="translate(-1437.72 -1532.4)" fill="#f3af55"/>
      <path id="Path_6309" data-name="Path 6309" d="M2502.667,2394c.016,1.494-.979,2.208-2.083,1.758a4.688,4.688,0,0,1-1.225-.793,21.166,21.166,0,0,1-5.493-6.973,3.763,3.763,0,0,1-.417-1.389,1.292,1.292,0,0,1,2.023-1.2,1.814,1.814,0,0,1,.4.278c2.135,2.134,4.48,4.081,6.062,6.708A12.614,12.614,0,0,1,2502.667,2394Z" transform="translate(-1411.849 -1648.846)" fill="#f3af55"/>
      <path id="Path_6310" data-name="Path 6310" d="M2412.116,2556.606a1.706,1.706,0,0,1-2.548,1.724,5.752,5.752,0,0,1-1.742-1.3,12.725,12.725,0,0,1-3.214-5.965,3.871,3.871,0,0,1-.1-1.212,1.119,1.119,0,0,1,1.694-.931,2.009,2.009,0,0,1,.605.411c1.462,1.59,2.963,3.148,4.342,4.808A3.55,3.55,0,0,1,2412.116,2556.606Z" transform="translate(-1331.379 -1801.949)" fill="#f3af55"/>
      <path id="Path_6324" data-name="Path 6324" d="M2030.365,2944.122a11.383,11.383,0,0,1,4.007,2.3,6.3,6.3,0,0,1,1.091,1.311,1.223,1.223,0,0,1-.183,1.577,5.051,5.051,0,0,1-2.509,1.46,28.181,28.181,0,0,1-6.9.7Z" transform="translate(-979.378 -2165.816)" fill="#fff"/>
      <path id="Path_6325" data-name="Path 6325" d="M1149.694,2701.3l.348,6.076a9.438,9.438,0,0,1-3.107-3.241,1.6,1.6,0,0,1,.979-2.4C1148.456,2701.563,1149.018,2701.459,1149.694,2701.3Z" transform="translate(-166.197 -1941.221)" fill="#fff"/>
      <path id="Path_6326" data-name="Path 6326" d="M2173.439,2154.037l-.281.089.02-.421Z" transform="translate(-1115.604 -1434.738)" fill="#fff"/>
    </g>
    <g id="Group_377" data-name="Group 377" transform="translate(-3.556 -12.067)">
      <path id="Path_6327" data-name="Path 6327" d="M1122.756,841.752a12.9,12.9,0,0,1,4.408-2.091c4.236-1.021,7.716,1.362,8.338,5.691a20.851,20.851,0,0,1-.41,7.074,89.693,89.693,0,0,1-5.4,16.663,313.542,313.542,0,0,1-14.763,29.92c-.272.5-.542,1.007-.866,1.608.334.175.64.349.956.5a14.18,14.18,0,0,1,4.347,3.152,4.524,4.524,0,0,1,1.393,3.667,4.129,4.129,0,0,1-.4,1.512,29.39,29.39,0,0,1-1.977,3.246c-1.971,2.716-3.989,5.4-6.02,8.068q-3.491,4.592-7.053,9.129a2.872,2.872,0,0,1-1.381.951,41.848,41.848,0,0,1-4.3.94,46.943,46.943,0,0,1-5.232.68c-2.16.114-4.333.091-6.5,0-5.832-.241-11.335-1.971-16.827-3.773a128.8,128.8,0,0,1-22.24-9.373c-3.294-1.818-6.532-3.746-9.714-5.754a36.507,36.507,0,0,1-4.226-3.343,3.171,3.171,0,0,1-.994-3.332c1.034-4.759,2.168-9.489,3.666-14.128a60.906,60.906,0,0,0,1.728-6.011,4.65,4.65,0,0,1,4.429-3.726c.481-.048.967-.058,1.523-.089.017-.312.053-.588.044-.862-.348-9.942-.645-19.887-1.07-29.825-.292-6.83-.806-13.65-1.134-20.479a57.954,57.954,0,0,1,.22-10.3,10.785,10.785,0,0,1,1.5-4.5,5.957,5.957,0,0,1,7.707-2.371,12.594,12.594,0,0,1,2.95,1.948,27.048,27.048,0,0,1,6.519,8.974,44.11,44.11,0,0,1,3.98,13.1c.052.364.125.726.2,1.087a.224.224,0,0,0,.068.112c1.8-6.65,3.494-13.385,5.471-20.035s4.246-13.229,6.362-19.76c-.477-.849,15.969,15.18,15.777,15.128l-4.327,15.577a3.021,3.021,0,0,0,.733-.393c.673-.715,1.279-1.5,1.978-2.182a11.928,11.928,0,0,1,4.171-2.752,4.748,4.748,0,0,1,6.043,2.063,9.618,9.618,0,0,1,1.332,4.3c.076.936.091,1.881.079,2.821-.012.9-.094,1.795-.158,2.909.318-.288.51-.446.683-.622,1.2-1.225,2.347-2.514,3.618-3.664,1.251-1.132,9.172-2.178,10.505.018a7.9,7.9,0,0,1,1.211,4.2c-.024,2.12-.235,4.237-.366,6.355q-.01.21-.02.421C1119.427,844.161,1121.687,842.5,1122.756,841.752Zm-18.636,68.5c1.046-1.586,2.049-2.986,2.928-4.461,4.608-7.733,9.1-15.532,13.161-23.571a211.693,211.693,0,0,0,9.812-21.4,50.461,50.461,0,0,0,3.12-11.584,10.385,10.385,0,0,0-.421-4.968,3.594,3.594,0,0,0-3.87-2.58,9.147,9.147,0,0,0-2.609.6,26.1,26.1,0,0,0-6.436,4,4.231,4.231,0,0,0-1.63,2.457,73.047,73.047,0,0,1-5.542,14.4,9.716,9.716,0,0,1-.677,1.166c-.607.874-1.225,1.173-1.814.921s-.793-1.052-.443-2.079c.21-.616.534-1.193.793-1.794,1.243-2.891,2.568-5.75,3.7-8.684a47.651,47.651,0,0,0,2.981-12.121,10.969,10.969,0,0,0-.557-5.438c-.78-1.9-2.256-2.643-4.15-1.88a16.217,16.217,0,0,0-3.7,2.116,26.867,26.867,0,0,0-5.52,6.06,3.309,3.309,0,0,0-.462,1.114c-.67,2.741-1.252,5.505-1.989,8.227-.812,3-1.742,5.964-2.662,8.932a4.643,4.643,0,0,1-.854,1.6,1.232,1.232,0,0,1-1.077.25c-.241-.071-.457-.54-.506-.86a2.772,2.772,0,0,1,.172-1.075c.625-2.33,1.3-4.647,1.885-6.987,1.011-4.045,2.086-8.08,2.9-12.165a41.423,41.423,0,0,0,.668-7.2,11.18,11.18,0,0,0-.733-3.822c-.733-2.1-2.083-2.636-4.039-1.626a12.829,12.829,0,0,0-3,2.1,28.225,28.225,0,0,0-7.218,12.247c-1.615,5.23-2.772,10.6-4.172,15.9a47.942,47.942,0,0,1-1.531,4.781c-.349.919-1.011,1.237-1.577,1.047-.633-.212-.847-.884-.564-1.9.208-.748.5-1.474.686-2.226,1.389-5.512,2.676-11.051,4.159-16.537,2.85-10.541,5.8-21.053,8.724-31.575,1.969-7.093,3.974-14.175,5.5-21.384a80.858,80.858,0,0,0,1.911-12.731,18.835,18.835,0,0,0-.166-4.151c-.429-2.45-2.1-3.027-3.94-1.345a17.416,17.416,0,0,0-3,3.541,87.272,87.272,0,0,0-4.346,7.683,213.13,213.13,0,0,0-9.993,24.656,396.775,396.775,0,0,0-12.1,43.471c-.7,3.153-1.374,6.314-2.092,9.464-.242,1.06-.626,1.4-1.2,1.239-.489-.137-.672-.6-.494-1.585.38-2.092.746-4.189,1.223-6.26a35.356,35.356,0,0,0,.924-10.573,46.348,46.348,0,0,0-5.1-18.177,24.29,24.29,0,0,0-5.508-7.16,10.1,10.1,0,0,0-1.773-1.306,3.626,3.626,0,0,0-5.161,1.468,6.979,6.979,0,0,0-.706,1.818,30.315,30.315,0,0,0-.566,8.308c.2,4.455.554,8.9.892,13.353.447,5.877,1.018,11.745,1.394,17.627.384,6,.659,12.018.86,18.032.139,4.172.085,8.35.088,12.525,0,.89-.124,1.78-.2,2.744C1065.933,902.324,1084.629,907.466,1104.119,910.25Zm-26.046-110.238c.881-2.071,3.693-8.693,4.584-10.76a76.065,76.065,0,0,1,6.874-13.282,36.146,36.146,0,0,1,3.619-4.475,9.322,9.322,0,0,1,2.911-1.982,3.4,3.4,0,0,1,4.647,1.75,8.11,8.11,0,0,1,.822,3.046,41.237,41.237,0,0,1-.14,6.247,168.964,168.964,0,0,1-4.082,21.2c-.812,3.339-1.692,6.662-2.574,9.984l-.882,3.4-.9,2.755S1077.98,800.231,1078.073,800.012Zm-36.463,90.772c-.083.219-.184.437-.248.665-.376,1.339-.766,2.674-1.11,4.021-.912,3.565-1.78,7.141-2.718,10.7a1.474,1.474,0,0,0,.684,1.857c.722.464,1.373,1.043,2.111,1.475,3.706,2.171,7.4,4.363,11.159,6.44,2.18,1.2,4.441,2.278,6.721,3.286a196.241,196.241,0,0,0,19.344,7.083,58.033,58.033,0,0,0,13.878,2.312,15.893,15.893,0,0,0,2.692-.12c2.4-.242,4.793-.649,7.2-.738a3.565,3.565,0,0,0,2.986-1.525c.147-.2.312-.379.464-.572q4.76-6.018,9.516-12.039c.2-.248.352-.527.544-.819a1.154,1.154,0,0,0-.31-.055,39.861,39.861,0,0,1-10.274.261,86.248,86.248,0,0,1-11.617-1.9,169.745,169.745,0,0,1-40.016-13.438c-3.818-1.891-7.62-3.8-10.725-6.814C1041.84,890.816,1041.74,890.819,1041.61,890.784Zm71.156,12.325-4.49,7.349a28.174,28.174,0,0,0,6.9-.7,5.05,5.05,0,0,0,2.509-1.461,1.223,1.223,0,0,0,.183-1.577,6.3,6.3,0,0,0-1.091-1.311A11.38,11.38,0,0,0,1112.766,903.109Zm-67.489-18.23c-.676.162-1.238.265-1.78.433a1.6,1.6,0,0,0-.979,2.4,9.438,9.438,0,0,0,3.107,3.241Z" transform="translate(-154.778 3709.094) rotate(-45)" fill="#0f0e0d"/>
      <path id="Path_6328" data-name="Path 6328" d="M1247.333,1324.466c-19.491-2.784-38.187-7.926-55.6-17.354.073-.965.2-1.855.2-2.745,0-4.175.051-8.354-.088-12.525-.2-6.014-.477-12.027-.86-18.032-.376-5.881-.947-11.75-1.394-17.627-.338-4.448-.691-8.9-.892-13.353a30.315,30.315,0,0,1,.566-8.308,6.969,6.969,0,0,1,.706-1.818,3.626,3.626,0,0,1,5.161-1.468,10.1,10.1,0,0,1,1.773,1.306,24.291,24.291,0,0,1,5.508,7.16,46.347,46.347,0,0,1,5.1,18.177,35.36,35.36,0,0,1-.924,10.573c-.477,2.071-.843,4.168-1.223,6.26-.178.983.005,1.448.494,1.585.569.159.953-.179,1.2-1.239.718-3.15,1.389-6.31,2.092-9.464a396.749,396.749,0,0,1,12.1-43.472,213.1,213.1,0,0,1,9.993-24.656,87.27,87.27,0,0,1,4.346-7.683,17.424,17.424,0,0,1,3-3.541c1.838-1.682,3.51-1.1,3.94,1.345a18.835,18.835,0,0,1,.166,4.151,80.874,80.874,0,0,1-1.912,12.731c-1.526,7.209-3.531,14.291-5.5,21.384-2.92,10.521-5.874,21.034-8.724,31.575-1.483,5.486-2.77,11.025-4.159,16.537-.189.752-.478,1.478-.686,2.226-.283,1.019-.069,1.691.564,1.9.566.19,1.228-.128,1.577-1.047a47.941,47.941,0,0,0,1.531-4.781c1.4-5.3,2.557-10.668,4.172-15.9a28.225,28.225,0,0,1,7.218-12.247,12.826,12.826,0,0,1,3-2.1c1.956-1.01,3.306-.477,4.039,1.626a11.184,11.184,0,0,1,.733,3.822,41.445,41.445,0,0,1-.668,7.2c-.819,4.085-1.893,8.12-2.9,12.165-.585,2.34-1.261,4.657-1.886,6.987a2.774,2.774,0,0,0-.172,1.075c.049.32.266.789.506.86a1.232,1.232,0,0,0,1.077-.25,4.646,4.646,0,0,0,.854-1.6c.92-2.967,1.85-5.934,2.662-8.932.737-2.722,1.319-5.486,1.989-8.227a3.309,3.309,0,0,1,.462-1.114,26.868,26.868,0,0,1,5.52-6.06,16.218,16.218,0,0,1,3.7-2.116c1.894-.763,3.37-.019,4.15,1.88a10.968,10.968,0,0,1,.557,5.438,47.656,47.656,0,0,1-2.981,12.121c-1.132,2.934-2.457,5.793-3.7,8.684-.258.6-.583,1.177-.793,1.794-.35,1.027-.15,1.826.443,2.079s1.206-.047,1.814-.921a9.727,9.727,0,0,0,.677-1.166,73.053,73.053,0,0,0,5.542-14.4,4.231,4.231,0,0,1,1.63-2.457,26.1,26.1,0,0,1,6.436-4,9.146,9.146,0,0,1,2.609-.6,3.594,3.594,0,0,1,3.87,2.58,10.383,10.383,0,0,1,.421,4.968,50.46,50.46,0,0,1-3.12,11.584,211.721,211.721,0,0,1-9.812,21.4c-4.058,8.039-8.553,15.838-13.161,23.571C1249.382,1321.48,1248.378,1322.88,1247.333,1324.466Z" transform="translate(-548.94 3517.467) rotate(-45)" fill="#fff"/>
      <path id="Path_6329" data-name="Path 6329" d="M1086.548,2779.953c.13.035.229.032.279.08,3.105,3.011,6.907,4.924,10.725,6.814a169.733,169.733,0,0,0,40.016,13.438,86.219,86.219,0,0,0,11.617,1.9,39.853,39.853,0,0,0,10.274-.261,1.153,1.153,0,0,1,.31.055c-.192.292-.349.571-.544.819q-4.754,6.023-9.516,12.039c-.152.192-.317.375-.464.572a3.565,3.565,0,0,1-2.986,1.525c-2.4.089-4.8.5-7.2.738a15.893,15.893,0,0,1-2.692.12,58.03,58.03,0,0,1-13.878-2.312,196.193,196.193,0,0,1-19.344-7.083c-2.28-1.009-4.541-2.082-6.721-3.286-3.758-2.077-7.453-4.269-11.159-6.44-.738-.432-1.389-1.012-2.111-1.475a1.474,1.474,0,0,1-.684-1.856c.938-3.558,1.806-7.134,2.718-10.7.344-1.347.734-2.682,1.11-4.021C1086.364,2780.39,1086.465,2780.172,1086.548,2779.953Zm7.24,12.189a4.134,4.134,0,0,0-1.018-2.816,2.362,2.362,0,0,0-3.939.385,5.606,5.606,0,0,0-.424,4.742,2.436,2.436,0,0,0,4.312.752A4.711,4.711,0,0,0,1093.788,2792.142Z" transform="translate(-1522.398 2405.026) rotate(-45)" fill="#f3af55"/>
      <path id="Path_6330" data-name="Path 6330" d="M1163.855,2896.769a4.71,4.71,0,0,1-1.07,3.063,2.436,2.436,0,0,1-4.312-.752,5.606,5.606,0,0,1,.424-4.742,2.361,2.361,0,0,1,3.939-.385A4.134,4.134,0,0,1,1163.855,2896.769Z" transform="translate(-1645.926 2380.589) rotate(-45)" fill="#0f0e0d"/>
    </g>
  </g>
</svg>
