<svg xmlns="http://www.w3.org/2000/svg" width="39.947" height="39.947" viewBox="0 0 39.947 39.947">
  <g id="Group_398" data-name="Group 398" transform="translate(-1130.66 -2343.026)">
    <path id="Path_348" data-name="Path 348" d="M33.274,13.3A19.974,19.974,0,1,0,53.247,33.274,19.974,19.974,0,0,0,33.274,13.3Zm0,38.056A18.083,18.083,0,1,1,51.356,33.274,18.108,18.108,0,0,1,33.274,51.356Z" transform="translate(1117.359 2329.726)" fill="#3d4354"/>
    <path id="Path_349" data-name="Path 349" d="M57.4,49.919H40.7l5.988-5.988a.947.947,0,1,0-1.339-1.339l-7.643,7.6a.858.858,0,0,0-.2.315,1.091,1.091,0,0,0,0,.709.858.858,0,0,0,.2.315l7.643,7.6a.951.951,0,0,0,1.339,0,.976.976,0,0,0,0-1.339L40.7,51.809H57.443a.946.946,0,1,0-.039-1.891Z" transform="translate(1102.724 2312.136)" fill="#3d4354"/>
  </g>
</svg>
