<svg xmlns="http://www.w3.org/2000/svg" width="1180.883" height="520.791" viewBox="0 0 1180.883 520.791">
  <g id="Group_86" data-name="Group 86" transform="translate(34.715 -1274.867)" opacity="0.29">
    <g id="Group_410" data-name="Group 410">
      <g id="Group_25" data-name="Group 25" transform="translate(1037.064 1638.781)">
        <g id="Group_17" data-name="Group 17" transform="translate(40.248 0)">
          <rect id="Rectangle_4" data-name="Rectangle 4" width="1.44" height="21.403" fill="#2b2b2b"/>
        </g>
        <g id="Group_18" data-name="Group 18" transform="translate(40.248 60.533)">
          <rect id="Rectangle_5" data-name="Rectangle 5" width="1.44" height="21.403" fill="#2b2b2b"/>
        </g>
        <g id="Group_19" data-name="Group 19" transform="translate(54.291 11.493)">
          <rect id="Rectangle_6" data-name="Rectangle 6" width="21.403" height="1.44" transform="translate(0 15.128) rotate(-44.978)" fill="#2b2b2b"/>
        </g>
        <g id="Group_20" data-name="Group 20" transform="translate(11.487 54.297)">
          <rect id="Rectangle_7" data-name="Rectangle 7" width="21.403" height="1.44" transform="translate(0 15.128) rotate(-44.978)" fill="#2b2b2b"/>
        </g>
        <g id="Group_21" data-name="Group 21" transform="translate(60.534 40.248)">
          <rect id="Rectangle_8" data-name="Rectangle 8" width="21.402" height="1.441" fill="#2b2b2b"/>
        </g>
        <g id="Group_22" data-name="Group 22" transform="translate(0 40.248)">
          <rect id="Rectangle_9" data-name="Rectangle 9" width="21.403" height="1.441" fill="#2b2b2b"/>
        </g>
        <g id="Group_23" data-name="Group 23" transform="translate(54.294 54.294)">
          <rect id="Rectangle_10" data-name="Rectangle 10" width="1.44" height="21.402" transform="translate(0 1.018) rotate(-45)" fill="#2b2b2b"/>
        </g>
        <g id="Group_24" data-name="Group 24" transform="translate(11.49 11.49)">
          <rect id="Rectangle_11" data-name="Rectangle 11" width="1.44" height="21.403" transform="translate(0 1.018) rotate(-45)" fill="#2b2b2b"/>
        </g>
      </g>
      <g id="Group_34" data-name="Group 34" transform="translate(-34.715 1274.867)">
        <g id="Group_26" data-name="Group 26" transform="translate(29.609 0)">
          <rect id="Rectangle_12" data-name="Rectangle 12" width="1.44" height="15.845" fill="#2b2b2b"/>
        </g>
        <g id="Group_27" data-name="Group 27" transform="translate(29.609 44.814)">
          <rect id="Rectangle_13" data-name="Rectangle 13" width="1.44" height="15.844" fill="#2b2b2b"/>
        </g>
        <g id="Group_28" data-name="Group 28" transform="translate(40.06 8.376)">
          <rect id="Rectangle_14" data-name="Rectangle 14" width="15.844" height="1.44" transform="translate(0 11.199) rotate(-44.978)" fill="#2b2b2b"/>
        </g>
        <g id="Group_29" data-name="Group 29" transform="translate(8.372 40.064)">
          <rect id="Rectangle_15" data-name="Rectangle 15" width="15.845" height="1.44" transform="matrix(0.707, -0.707, 0.707, 0.707, 0, 11.2)" fill="#2b2b2b"/>
        </g>
        <g id="Group_30" data-name="Group 30" transform="translate(44.813 29.609)">
          <rect id="Rectangle_16" data-name="Rectangle 16" width="15.844" height="1.441" fill="#2b2b2b"/>
        </g>
        <g id="Group_31" data-name="Group 31" transform="translate(0 29.609)">
          <rect id="Rectangle_17" data-name="Rectangle 17" width="15.845" height="1.441" fill="#2b2b2b"/>
        </g>
        <g id="Group_32" data-name="Group 32" transform="translate(40.061 40.063)">
          <rect id="Rectangle_18" data-name="Rectangle 18" width="1.44" height="15.844" transform="matrix(0.707, -0.707, 0.707, 0.707, 0, 1.018)" fill="#2b2b2b"/>
        </g>
        <g id="Group_33" data-name="Group 33" transform="translate(8.374 8.375)">
          <rect id="Rectangle_19" data-name="Rectangle 19" width="1.44" height="15.844" transform="translate(0 1.018) rotate(-45.001)" fill="#2b2b2b"/>
        </g>
      </g>
      <g id="Group_35" data-name="Group 35" transform="translate(1043.862 1441.647)">
        <path id="Path_319" data-name="Path 319" d="M1495.3,247.878a12.941,12.941,0,1,1-12.941-12.941A12.941,12.941,0,0,1,1495.3,247.878Z" transform="translate(-1469.415 -234.937)" fill="#bcb7b7"/>
      </g>
      <circle width="38" id="Ellipse_4" data-name="Ellipse 4" cx="19.211" cy="19.211" r="19.211" transform="translate(1091.831 1335.525) rotate(-45)" fill="#bcb7b7"/>
      <g id="Group_37" data-name="Group 37" transform="translate(-30 1744.43)">
        <circle id="Ellipse_5" data-name="Ellipse 5" cx="25.614" cy="25.614" r="25.614" transform="translate(0 0)" fill="#bcb7b7"/>
      </g>
    </g>
  </g>
</svg>
